<?xml version="1.0" standalone="no"?>
<!DOCTYPE svg PUBLIC "-//W3C//DTD SVG 20010904//EN"
 "http://www.w3.org/TR/2001/REC-SVG-20010904/DTD/svg10.dtd">
<svg version="1.0" xmlns="http://www.w3.org/2000/svg"
 width="255.000000pt" height="143.000000pt" viewBox="0 0 255.000000 143.000000"
 preserveAspectRatio="xMidYMid meet">

<g transform="translate(0.000000,143.000000) scale(0.100000,-0.100000)"
fill="#000000" stroke="none">
<path d="M2 1069 l-2 -367 63 -6 c104 -12 218 -5 225 13 3 9 11 24 19 33 11
13 12 21 3 37 -8 17 -8 26 5 43 8 13 15 35 15 51 0 24 -2 26 -19 17 -36 -19
-109 -8 -99 15 1 5 -12 13 -30 17 -38 10 -72 36 -72 56 0 7 -7 15 -15 18 -8 4
-15 12 -15 20 0 7 -10 13 -22 12 -39 -1 -48 2 -48 16 0 10 17 12 78 9 42 -2
83 -6 90 -8 23 -8 53 15 50 38 -3 19 2 22 37 23 97 3 99 4 88 15 -6 6 -23 12
-37 12 -14 1 -26 5 -26 9 0 5 -3 7 -7 6 -5 0 -17 3 -27 7 -15 7 -25 1 -49 -28
-27 -35 -70 -51 -64 -25 1 7 -17 16 -43 22 -25 5 -53 18 -63 29 -9 11 -18 16
-19 11 -1 -5 -5 54 -8 131 -4 97 -6 27 -8 -226z m68 -309 c0 -5 -4 -10 -10
-10 -5 0 -10 5 -10 10 0 6 5 10 10 10 6 0 10 -4 10 -10z m-40 -4 c0 -3 -4 -8
-10 -11 -5 -3 -10 -1 -10 4 0 6 5 11 10 11 6 0 10 -2 10 -4z m47 -22 c-3 -3
-12 -4 -19 -1 -8 3 -5 6 6 6 11 1 17 -2 13 -5z m118 -4 c18 -8 18 -9 -5 -9
-14 0 -34 4 -45 9 -18 8 -18 9 5 9 14 0 34 -4 45 -9z"/>
<path d="M783 1423 c4 -3 0 -17 -8 -30 -14 -20 -14 -23 -1 -23 15 0 36 29 36
49 0 6 -7 11 -17 11 -9 0 -13 -3 -10 -7z"/>
<path d="M1063 1356 c0 -8 6 -12 14 -9 7 3 10 9 7 14 -8 14 -21 11 -21 -5z"/>
<path d="M570 1081 c0 -6 -9 -11 -19 -11 -10 0 -21 -7 -25 -15 -7 -20 3 -19
37 4 18 11 25 21 18 25 -6 4 -11 2 -11 -3z"/>
<path d="M610 983 c0 -8 13 -13 34 -13 49 0 54 17 6 22 -28 2 -40 0 -40 -9z"/>
<path d="M605 870 c-8 -14 19 -18 60 -10 23 4 31 9 20 10 -47 7 -76 7 -80 0z"/>
<path d="M988 873 c7 -3 16 -2 19 1 4 3 -2 6 -13 5 -11 0 -14 -3 -6 -6z"/>
<path d="M1005 850 c-44 -6 -40 -7 34 -8 46 -1 82 0 80 2 -10 8 -68 11 -114 6z"/>
<path d="M605 818 c-3 -7 -2 -38 2 -68 l8 -55 215 0 c118 -1 247 -2 285 -4
133 -6 440 0 420 9 -11 4 -58 13 -105 18 -47 6 -119 16 -160 21 -41 6 -149 21
-240 32 -334 43 -366 47 -392 54 -20 5 -29 3 -33 -7z"/>
<path d="M2 350 l-2 -345 25 -1 c31 -2 33 13 2 19 -13 3 -7 5 16 6 24 1 40 -4
43 -13 3 -8 13 -12 25 -9 23 6 24 13 3 39 -15 18 -15 18 -9 -4 6 -21 5 -22
-14 -10 -24 14 -27 24 -9 30 7 3 9 12 4 23 -5 14 -9 16 -18 7 -21 -21 -35 -13
-36 18 0 17 4 30 9 30 5 0 9 -5 9 -11 0 -6 7 -9 15 -5 8 3 15 1 15 -4 0 -5 10
-12 21 -15 17 -6 19 -9 8 -16 -11 -7 -10 -9 4 -9 11 0 15 -5 11 -11 -4 -7 0
-9 14 -5 11 4 23 2 27 -4 3 -5 -1 -10 -9 -10 -20 0 -20 -14 -1 -30 13 -11 14
-10 10 1 -3 9 6 21 24 32 37 22 36 22 36 -8 0 -14 -3 -25 -7 -25 -5 0 -8 -4
-8 -10 0 -5 7 -7 15 -4 10 4 13 13 10 25 -4 11 -2 19 4 19 6 0 13 -10 16 -23
5 -17 14 -23 45 -25 30 -2 40 1 40 13 0 18 -21 20 -38 3 -9 -9 -12 -9 -12 0 0
7 5 12 11 12 5 0 7 5 4 10 -4 6 -9 8 -13 6 -4 -2 -16 3 -27 11 -19 15 -19 15
5 9 53 -14 59 -14 64 1 3 8 4 19 0 24 -3 5 1 9 10 9 8 0 16 4 18 9 2 4 14 12
28 16 22 7 23 6 12 -7 -10 -13 -10 -19 3 -32 15 -15 15 -16 -4 -16 -12 0 -21
6 -21 15 0 24 -14 17 -28 -13 -10 -23 -10 -29 3 -38 8 -6 15 -16 15 -23 0 -12
19 -14 44 -5 13 5 14 9 5 20 -8 10 -8 14 0 14 6 0 11 7 11 15 0 9 7 15 17 13
10 -2 22 7 28 20 19 35 25 38 25 9 0 -17 -5 -27 -15 -27 -8 0 -15 -7 -15 -15
0 -9 -6 -12 -16 -8 -14 5 -15 3 -5 -15 15 -28 47 -37 66 -18 19 18 19 23 0 23
-8 0 -12 -4 -9 -8 8 -13 -15 -20 -33 -10 -17 10 -17 10 -1 11 12 0 15 5 11 18
-3 9 -3 14 2 10 4 -4 16 2 26 13 9 11 20 16 23 10 3 -5 0 -11 -6 -14 -9 -3 -5
-11 11 -23 22 -16 23 -18 6 -30 -15 -11 -14 -13 14 -12 22 1 29 4 21 12 -18
18 -11 38 13 35 12 -2 28 0 35 5 7 4 16 5 19 2 4 -3 1 -6 -5 -6 -6 0 -9 -7 -5
-17 5 -13 2 -15 -15 -11 -12 4 -22 2 -22 -3 0 -5 4 -9 9 -9 5 0 17 -3 26 -6 9
-4 15 -3 14 2 -3 20 2 34 12 34 6 0 8 -9 4 -20 -5 -17 -2 -20 25 -20 18 0 33
6 36 15 4 8 12 15 20 15 18 0 18 14 -1 30 -13 11 -13 15 -3 21 10 7 9 9 -3 9
-8 0 -24 -7 -35 -15 -23 -17 -44 -19 -44 -4 0 6 5 9 12 7 7 -3 22 5 35 16 25
21 30 36 12 36 -5 0 -7 -4 -4 -10 3 -5 -1 -10 -9 -10 -24 0 -28 18 -6 30 30
16 72 -14 64 -45 -3 -13 -1 -32 5 -42 6 -10 11 -12 11 -5 0 6 11 12 25 12 23
0 24 2 15 20 -6 11 -15 18 -20 15 -5 -3 -14 3 -19 14 -15 26 -14 31 4 25 8 -4
12 -11 8 -17 -4 -6 -1 -7 6 -3 9 6 9 12 -3 25 -9 10 -15 20 -14 22 2 2 -2 -1
-8 -8 -13 -15 -31 -17 -36 -5 -2 5 -16 12 -31 16 -19 4 -26 3 -22 -4 3 -6 -3
-10 -16 -10 -18 0 -20 3 -11 12 18 18 14 27 -8 21 -13 -4 -26 1 -34 12 -12 16
-13 16 -19 1 -4 -9 -2 -16 3 -16 6 0 10 -4 10 -10 0 -5 -7 -7 -16 -3 -11 4
-14 13 -9 30 4 16 2 22 -5 18 -5 -3 -13 1 -16 9 -3 9 -11 16 -17 16 -5 0 -3
-8 6 -18 23 -25 22 -29 -13 -47 -17 -9 -28 -20 -25 -24 3 -5 -2 -12 -11 -15
-24 -9 -26 -8 -14 13 14 28 12 35 -6 20 -10 -8 -13 -21 -9 -37 6 -23 4 -24
-22 -17 -37 9 -41 15 -20 26 9 6 17 17 17 24 0 8 5 15 10 15 6 0 10 5 10 11 0
6 -9 8 -20 4 -13 -4 -37 2 -61 15 -32 16 -44 18 -55 9 -10 -8 -14 -8 -14 0 0
6 5 11 11 11 5 0 7 4 4 10 -3 5 1 10 9 10 9 0 16 5 16 10 0 6 -9 10 -19 10
-11 0 -23 5 -27 12 -5 8 0 9 17 4 13 -4 35 -10 49 -12 22 -4 23 -3 5 5 l-20
10 20 1 c19 1 19 1 1 11 -13 8 -20 8 -25 0 -5 -7 -13 -4 -24 9 -9 11 -25 21
-34 21 -10 1 -28 3 -40 4 -13 1 -23 -2 -23 -8 0 -6 -3 -7 -6 -4 -12 11 17 36
34 30 14 -4 15 -3 2 5 -10 8 -18 8 -27 0 -10 -8 -13 -6 -14 8 0 18 -1 18 -8
-1 -5 -11 -6 -26 -3 -34 4 -10 1 -13 -9 -9 -8 3 -23 -3 -33 -13 -16 -16 -17
-19 -4 -19 9 0 24 -3 34 -7 11 -4 15 -3 10 5 -3 6 -2 13 3 17 5 3 14 -2 19
-11 7 -13 13 -14 31 -5 17 9 21 9 21 -2 0 -7 -5 -18 -12 -25 -9 -9 -8 -12 5
-12 9 0 17 -4 17 -8 0 -4 -17 -8 -38 -7 -27 0 -39 4 -38 14 1 7 -15 19 -34 26
-31 11 -37 10 -57 -8 -13 -11 -25 -18 -28 -16 -8 9 26 50 36 44 14 -9 11 5 -6
21 -13 14 -15 14 -15 0 0 -25 -17 -19 -24 9 -4 17 -11 23 -24 19 -14 -5 -15
-4 -2 5 13 9 12 11 -3 11 -10 0 -15 5 -12 10 9 15 -4 12 -21 -4 -12 -13 -12
-16 3 -26 17 -11 17 -11 1 -6 -10 3 -18 1 -18 -4 0 -6 7 -10 16 -10 8 0 12 -5
9 -10 -4 -6 -11 -8 -16 -5 -5 3 -6 -1 -3 -9 3 -9 1 -16 -5 -16 -18 0 -15 136
3 143 8 3 20 -1 27 -9 10 -12 14 -12 20 -2 6 9 9 9 9 1 0 -6 -5 -15 -11 -18
-13 -9 28 -55 49 -55 8 0 20 -7 26 -15 10 -14 13 -14 32 0 28 19 35 49 19 72
-13 17 -14 17 -28 -1 -9 -12 -20 -17 -31 -13 -9 4 -16 1 -16 -5 0 -9 -3 -9
-12 0 -8 8 -8 15 0 25 7 8 9 17 5 21 -4 4 -1 11 7 16 12 8 10 10 -8 10 -13 0
-20 4 -17 10 3 6 1 10 -5 10 -6 0 -9 3 -7 8 3 4 1 16 -4 27 -6 17 -8 18 -8 2
-1 -13 -7 -16 -26 -11 -23 6 -25 3 -27 -27 -1 -19 -5 24 -8 96 -4 90 -7 23 -8
-215z m43 120 c3 -5 1 -10 -4 -10 -6 0 -11 5 -11 10 0 6 2 10 4 10 3 0 8 -4
11 -10z m20 -30 c3 -6 -1 -7 -9 -4 -18 7 -21 14 -7 14 6 0 13 -4 16 -10z m111
-88 c-15 -15 -16 -15 -16 1 0 10 6 24 13 31 10 12 13 12 15 -1 2 -9 -3 -23
-12 -31z m-106 -62 c0 -5 -7 -10 -15 -10 -8 0 -15 5 -15 10 0 6 7 10 15 10 8
0 15 -4 15 -10z m15 -31 c12 -18 -3 -22 -20 -5 -14 14 -14 16 -1 16 8 0 18 -5
21 -11z m95 2 c0 -5 -6 -11 -12 -14 -7 -2 -10 -7 -6 -11 3 -4 15 -3 26 3 16 9
20 8 18 -5 -1 -8 -15 -22 -30 -30 -23 -11 -26 -11 -17 0 9 10 8 16 -3 26 -12
9 -13 15 -3 25 14 16 27 19 27 6z m135 -2 c11 -17 -1 -21 -15 -4 -8 9 -8 15
-2 15 6 0 14 -5 17 -11z m-261 -18 c3 -5 -5 -8 -18 -7 -13 0 -22 4 -19 9 6 10
31 9 37 -2z m86 -32 c0 -5 -9 -9 -20 -9 -11 0 -20 6 -20 14 0 9 7 12 20 9 11
-3 20 -9 20 -14z m170 11 c0 -4 -5 -11 -12 -18 -10 -9 -8 -16 7 -30 18 -16 18
-16 6 1 -16 21 -15 22 24 31 17 4 25 3 20 -1 -6 -4 -16 -20 -22 -34 -8 -19
-22 -28 -47 -33 -20 -4 -41 -4 -46 -1 -14 9 -51 -4 -45 -16 9 -14 -28 2 -46
20 -15 15 -14 18 10 38 14 13 30 23 35 23 5 0 -1 -8 -12 -19 -25 -21 -29 -41
-7 -41 21 0 65 22 65 32 0 5 8 7 19 3 15 -5 18 -1 13 20 -2 15 -11 25 -21 24
-10 0 -11 -2 -3 -6 16 -6 15 -23 -2 -23 -12 0 -14 14 -7 37 2 6 71 -2 71 -7z
m-245 -30 c3 -5 1 -10 -4 -10 -6 0 -11 5 -11 10 0 6 2 10 4 10 3 0 8 -4 11
-10z m326 -20 c6 0 7 6 3 13 -5 9 -4 9 6 0 18 -16 7 -27 -19 -18 -14 4 -18 11
-13 23 6 16 7 16 10 0 2 -10 8 -18 13 -18z m-282 6 c12 -15 5 -46 -11 -46 -6
0 -5 6 2 15 10 12 10 15 -3 15 -9 0 -18 -4 -22 -10 -6 -10 -35 -2 -35 10 0 5
9 7 20 5 13 -2 20 2 20 11 0 18 14 18 29 0z m-92 -33 c-3 -10 -5 -4 -5 12 0
17 2 24 5 18 2 -7 2 -21 0 -30z m198 27 c3 -5 2 -10 -4 -10 -5 0 -17 -3 -27
-7 -16 -6 -17 -5 -4 10 17 19 26 21 35 7z m225 -10 c0 -5 -5 -10 -11 -10 -5 0
-7 5 -4 10 3 6 8 10 11 10 2 0 4 -4 4 -10z m151 0 c5 0 9 -4 9 -10 0 -15 -30
-12 -30 3 -1 7 -6 5 -14 -5 -7 -10 -16 -15 -19 -11 -11 10 -8 25 3 18 6 -3 10
-1 10 5 0 7 7 9 16 6 9 -3 20 -6 25 -6z m-231 -10 c0 -5 8 -7 18 -4 14 5 15 4
2 -5 -21 -15 -40 -13 -40 4 0 8 5 15 10 15 6 0 10 -4 10 -10z m277 -20 c1 -11
-2 -20 -6 -20 -5 0 -11 9 -14 20 -3 12 0 20 7 20 6 0 12 -9 13 -20z m33 0 c0
-5 -4 -10 -10 -10 -5 0 -10 5 -10 10 0 6 5 10 10 10 6 0 10 -4 10 -10z m-520
-10 c0 -5 7 -10 15 -10 13 0 14 -2 3 -14 -11 -12 -15 -12 -29 3 -17 16 -16 31
2 31 5 0 9 -4 9 -10z m177 -21 c-9 -15 -19 -18 -42 -13 -16 3 -36 12 -43 19
-11 10 -8 12 17 11 17 -1 31 -4 31 -8 0 -5 5 -8 11 -8 5 0 8 4 5 9 -4 5 0 11
6 14 22 7 28 -3 15 -24z m208 25 c13 -5 14 -8 3 -15 -19 -13 -28 -11 -28 6 0
17 2 18 25 9z m50 -4 c-3 -5 -10 -10 -16 -10 -5 0 -9 5 -9 10 0 6 7 10 16 10
8 0 12 -4 9 -10z m-568 -47 c-3 -10 -5 -2 -5 17 0 19 2 27 5 18 2 -10 2 -26 0
-35z m413 27 c0 -5 -2 -10 -4 -10 -3 0 -8 5 -11 10 -3 6 -1 10 4 10 6 0 11 -4
11 -10z m180 6 c0 -3 -4 -8 -10 -11 -5 -3 -10 -1 -10 4 0 6 5 11 10 11 6 0 10
-2 10 -4z m80 -5 c0 -5 -12 -8 -26 -8 -18 0 -22 2 -13 8 18 11 39 11 39 0z
m-120 -11 c0 -5 -5 -10 -11 -10 -5 0 -7 5 -4 10 3 6 8 10 11 10 2 0 4 -4 4
-10z m-376 -21 c-3 -5 -10 -7 -15 -3 -5 3 -7 10 -3 15 3 5 10 7 15 3 5 -3 7
-10 3 -15z m440 12 c3 -5 -3 -11 -14 -14 -22 -6 -37 8 -18 16 20 8 26 8 32 -2z
m176 -2 c0 -4 -9 -9 -20 -12 -13 -3 -20 0 -20 8 0 8 9 13 20 12 11 -1 20 -4
20 -8z m-429 -26 c0 -11 3 -13 6 -5 5 13 23 17 23 5 0 -5 -4 -15 -10 -23 -7
-12 -12 -12 -29 4 -11 10 -18 23 -15 27 9 15 24 10 25 -8z m347 -16 c-12 -4
-25 -13 -29 -19 -5 -7 -8 -7 -13 0 -4 6 3 16 14 22 11 6 18 16 14 21 -3 6 3 5
15 -3 l21 -13 -22 -8z m-668 13 c0 -5 -7 -10 -15 -10 -8 0 -15 5 -15 10 0 6 7
10 15 10 8 0 15 -4 15 -10z"/>
<path d="M245 160 c-9 -15 -1 -23 21 -18 15 3 16 4 1 16 -11 9 -17 10 -22 2z"/>
<path d="M1893 663 c42 -2 112 -2 155 0 42 1 7 3 -78 3 -85 0 -120 -2 -77 -3z"/>
<path d="M2193 663 c15 -2 37 -2 50 0 12 2 0 4 -28 4 -27 0 -38 -2 -22 -4z"/>
<path d="M2310 660 c20 -13 63 -13 55 0 -3 6 -21 10 -38 10 -24 0 -28 -3 -17
-10z"/>
<path d="M2408 663 c7 -3 16 -2 19 1 4 3 -2 6 -13 5 -11 0 -14 -3 -6 -6z"/>
<path d="M2498 663 c12 -2 30 -2 40 0 9 3 -1 5 -23 4 -22 0 -30 -2 -17 -4z"/>
<path d="M1623 653 c26 -2 68 -2 95 0 26 2 4 3 -48 3 -52 0 -74 -1 -47 -3z"/>
<path d="M1325 630 c-3 -5 3 -10 14 -10 12 0 21 5 21 10 0 6 -6 10 -14 10 -8
0 -18 -4 -21 -10z"/>
<path d="M1395 621 c11 -5 70 -7 130 -5 61 1 101 -1 90 -5 -12 -5 39 -11 130
-16 368 -19 460 -26 446 -34 -16 -10 123 -5 246 10 51 6 97 8 103 4 5 -3 10 1
10 9 0 12 -11 16 -48 16 -26 0 -53 -5 -59 -11 -6 -6 -36 -9 -72 -7 -34 1 -61
0 -61 -4 0 -5 -7 -8 -15 -8 -18 0 -20 26 -2 33 6 2 -18 5 -55 5 -47 1 -67 -2
-65 -11 1 -6 -8 -13 -20 -15 -18 -3 -22 0 -16 14 5 14 2 16 -23 10 -16 -4 -42
-9 -59 -11 -27 -4 -27 -4 -5 3 24 8 -79 14 -505 27 -103 3 -162 2 -150 -4z"/>
<path d="M645 600 c3 -5 10 -10 16 -10 5 0 9 5 9 10 0 6 -7 10 -16 10 -8 0
-12 -4 -9 -10z"/>
<path d="M698 590 c13 -5 49 -12 80 -15 48 -3 51 -3 17 4 -93 19 -121 22 -97
11z"/>
<path d="M2348 593 c6 -2 18 -2 25 0 6 3 1 5 -13 5 -14 0 -19 -2 -12 -5z"/>
<path d="M250 570 c0 -5 7 -10 16 -10 8 0 12 5 9 10 -3 6 -10 10 -16 10 -5 0
-9 -4 -9 -10z"/>
<path d="M1253 573 c15 -2 39 -2 55 0 15 2 2 4 -28 4 -30 0 -43 -2 -27 -4z"/>
<path d="M853 563 c9 -2 25 -2 35 0 9 3 1 5 -18 5 -19 0 -27 -2 -17 -5z"/>
<path d="M1508 555 c68 -7 136 -16 150 -20 15 -4 72 -11 127 -16 170 -15 305
-29 425 -44 153 -20 340 -20 340 -1 0 18 -29 29 -44 17 -7 -6 -41 -13 -77 -17
-55 -5 -68 -4 -83 12 -15 14 -22 15 -37 6 -28 -18 -63 -14 -93 9 -20 16 -33
19 -54 13 -35 -10 -199 -5 -231 8 -14 5 -52 9 -86 9 -33 0 -89 5 -125 11 -102
16 -118 17 -230 22 l-105 5 123 -14z"/>
<path d="M695 524 c14 -21 38 -44 53 -51 l27 -13 -28 5 c-19 4 -29 1 -33 -10
-4 -9 -19 -15 -41 -15 -39 0 -37 -15 4 -23 16 -3 39 -8 53 -11 14 -3 42 -8 63
-11 30 -5 37 -10 36 -28 0 -16 -2 -18 -7 -7 -4 8 -14 17 -22 19 -92 23 -169
25 -120 3 22 -10 21 -11 -15 -6 -22 3 -55 10 -72 14 -26 7 -35 5 -44 -8 -10
-16 -10 -15 -5 1 3 10 0 17 -9 17 -21 0 -26 -15 -11 -36 11 -15 17 -16 29 -6
14 12 36 13 47 2 3 -3 37 -16 75 -29 92 -32 201 -86 208 -105 3 -8 19 -17 36
-21 17 -4 31 -10 31 -15 0 -5 18 -19 40 -31 22 -13 40 -27 40 -32 0 -5 7 -7
15 -3 9 3 15 0 15 -10 0 -10 6 -14 15 -10 9 3 32 -3 53 -14 20 -11 42 -20 49
-20 16 0 127 -53 131 -62 2 -5 8 -8 13 -8 6 0 7 5 4 10 -3 6 -1 10 4 10 6 0
11 -4 11 -9 0 -15 273 -13 282 2 6 9 8 9 8 0 0 -10 64 -13 288 -12 158 1 276
3 262 5 -74 12 -200 59 -200 75 0 5 -17 11 -37 14 -71 11 -125 26 -166 45 -23
10 -55 20 -72 23 -38 6 -132 42 -151 58 -21 17 -17 37 9 42 12 2 1 4 -25 4
-27 0 -57 7 -71 16 -14 9 -66 30 -117 46 -50 17 -108 44 -128 59 -24 19 -55
32 -87 37 -27 4 -70 15 -95 24 -107 42 -147 54 -178 54 -18 0 -28 3 -22 7 6 4
-24 14 -67 24 -43 10 -84 20 -91 23 -7 3 -1 -12 13 -33z m36 -3 c-11 -7 -11
-10 3 -14 15 -5 15 -5 0 -3 -24 2 -30 26 -7 26 14 0 15 -2 4 -9z m72 -8 c-7
-2 -21 -2 -30 0 -10 3 -4 5 12 5 17 0 24 -2 18 -5z m232 -101 c-3 -3 -11 0
-18 7 -9 10 -8 11 6 5 10 -3 15 -9 12 -12z m85 -22 c6 0 8 4 5 10 -3 5 0 7 9
4 20 -8 9 -34 -12 -27 -20 7 -52 39 -52 50 1 4 9 -2 19 -14 11 -13 24 -23 31
-23z m65 -8 c-2 -3 0 -13 5 -22 7 -14 6 -18 -5 -16 -8 1 -18 6 -22 11 -4 4 -2
5 6 0 9 -5 12 -3 9 6 -3 8 -11 13 -17 11 -7 -1 -10 1 -7 6 3 5 12 9 21 9 8 0
13 -2 10 -5z m-325 -22 c0 -11 -4 -20 -8 -20 -4 0 -8 9 -8 20 0 11 4 20 8 20
4 0 8 -9 8 -20z m385 -22 c19 -5 19 -5 1 -13 -18 -8 -36 7 -36 30 0 6 4 5 8
-1 4 -7 16 -14 27 -16z m-320 -18 c22 -10 34 -19 26 -19 -21 -1 -81 22 -81 31
0 11 9 9 55 -12z m395 0 c14 -11 21 -20 15 -20 -5 0 -21 9 -35 20 -14 11 -20
20 -15 20 6 0 21 -9 35 -20z m-320 -30 c0 -5 -7 -7 -15 -4 -8 4 -15 8 -15 10
0 2 7 4 15 4 8 0 15 -4 15 -10z m170 -20 c0 -5 -2 -10 -4 -10 -3 0 -8 5 -11
10 -3 6 -1 10 4 10 6 0 11 -4 11 -10z m38 -19 c12 -10 22 -23 22 -29 0 -6 8
-15 17 -21 21 -11 11 -26 -12 -18 -8 4 -15 16 -15 28 0 12 -8 23 -20 26 -11 3
-20 12 -20 19 0 18 3 18 28 -5z m212 -2 c0 -6 -4 -7 -10 -4 -5 3 -10 11 -10
16 0 6 5 7 10 4 6 -3 10 -11 10 -16z m-85 -19 c3 -5 1 -10 -4 -10 -6 0 -11 5
-11 10 0 6 2 10 4 10 3 0 8 -4 11 -10z m-319 -38 c-3 -5 5 -8 17 -6 12 1 32
-5 45 -13 13 -8 34 -16 46 -17 12 -1 27 -6 34 -10 7 -4 12 -2 12 4 0 6 14 1
31 -11 26 -18 33 -19 40 -8 7 12 9 12 9 0 0 -8 7 -11 20 -8 16 4 19 0 18 -19
-2 -24 -9 -30 -22 -17 -3 4 -16 8 -28 10 -12 2 -30 10 -39 19 -9 8 -23 14 -31
13 -25 -4 -110 13 -121 26 -6 6 -18 10 -27 8 -21 -5 -44 12 -36 26 4 6 14 11
22 11 8 0 13 -4 10 -8z m154 -12 c0 -5 -7 -10 -16 -10 -8 0 -12 5 -9 10 3 6
10 10 16 10 5 0 9 -4 9 -10z m34 -16 c3 -8 2 -12 -4 -9 -6 3 -10 10 -10 16 0
14 7 11 14 -7z m141 -34 c3 -5 1 -10 -4 -10 -6 0 -11 5 -11 10 0 6 2 10 4 10
3 0 8 -4 11 -10z m5 -32 c0 -9 4 -8 10 2 8 13 10 12 10 -2 0 -13 8 -18 26 -18
16 0 24 -5 21 -12 -2 -7 -13 -12 -23 -10 -10 2 -27 4 -36 5 -11 1 -18 10 -19
22 -1 17 -2 17 -6 3 -5 -18 -15 -23 -26 -12 -8 8 15 33 31 34 6 0 12 -6 12
-12z m190 -18 c0 -5 -4 -10 -10 -10 -5 0 -10 5 -10 10 0 6 5 10 10 10 6 0 10
-4 10 -10z m-93 -42 c-3 -7 -5 -2 -5 12 0 14 2 19 5 13 2 -7 2 -19 0 -25z
m398 11 c-4 -5 -12 -9 -18 -8 -9 0 -8 2 1 6 6 2 9 10 6 15 -4 7 -2 8 5 4 6 -4
9 -12 6 -17z m-275 -5 c0 -14 -3 -14 -15 -4 -8 7 -15 14 -15 16 0 2 7 4 15 4
8 0 15 -7 15 -16z m34 -20 c4 -10 1 -14 -6 -12 -15 5 -23 28 -10 28 5 0 13 -7
16 -16z m256 6 c0 -5 -5 -10 -11 -10 -5 0 -7 5 -4 10 3 6 8 10 11 10 2 0 4 -4
4 -10z"/>
<path d="M28 543 c7 -3 16 -2 19 1 4 3 -2 6 -13 5 -11 0 -14 -3 -6 -6z"/>
<path d="M227 484 c-4 -4 -7 -14 -7 -23 0 -11 3 -12 11 -4 6 6 10 16 7 23 -2
6 -7 8 -11 4z"/>
<path d="M23 405 c-3 -9 -3 -19 1 -22 3 -4 6 -1 6 6 0 7 4 9 10 6 6 -3 7 1 4
9 -8 20 -13 20 -21 1z"/>
<path d="M130 409 c0 -5 5 -7 10 -4 6 3 10 8 10 11 0 2 -4 4 -10 4 -5 0 -10
-5 -10 -11z"/>
<path d="M357 385 c-4 -8 3 -10 19 -7 29 5 30 8 5 15 -11 3 -22 -1 -24 -8z"/>
<path d="M290 352 c0 -5 7 -9 15 -9 8 0 12 4 9 9 -3 4 -9 8 -15 8 -5 0 -9 -4
-9 -8z"/>
<path d="M558 348 c-5 -11 -1 -21 10 -27 16 -10 16 -10 0 -11 -9 0 -19 -4 -22
-8 -7 -12 38 -9 46 3 4 6 8 -3 8 -20 0 -21 3 -26 9 -16 11 17 -7 61 -25 61 -7
0 -14 8 -16 18 -3 16 -4 16 -10 0z"/>
<path d="M380 320 c0 -5 5 -10 11 -10 5 0 7 5 4 10 -3 6 -8 10 -11 10 -2 0 -4
-4 -4 -10z"/>
<path d="M624 278 c-1 -18 1 -27 3 -20 7 18 20 15 26 -8 4 -14 10 -18 23 -13
12 4 15 3 10 -5 -4 -7 -1 -12 8 -12 9 0 16 -8 16 -17 0 -15 2 -16 10 -3 16 25
11 37 -17 46 -16 4 -32 6 -36 5 -5 -1 -5 8 -2 20 5 15 4 19 -5 14 -6 -4 -17 0
-23 9 -10 14 -12 11 -13 -16z"/>
<path d="M410 265 c-11 -13 -10 -14 4 -9 9 3 16 10 16 15 0 13 -6 11 -20 -6z"/>
<path d="M490 268 c0 -4 7 -8 15 -8 8 0 15 4 15 8 0 5 -7 9 -15 9 -8 0 -15 -4
-15 -9z"/>
<path d="M440 260 c0 -5 5 -10 11 -10 5 0 7 5 4 10 -3 6 -8 10 -11 10 -2 0 -4
-4 -4 -10z"/>
<path d="M420 239 c0 -5 9 -9 20 -9 11 0 20 2 20 4 0 2 -9 6 -20 9 -11 3 -20
1 -20 -4z"/>
<path d="M480 240 c13 -8 13 -10 0 -10 -10 0 -11 -3 -4 -8 6 -4 14 -14 18 -22
3 -9 5 -6 2 7 -2 12 2 24 10 27 9 3 11 -1 8 -12 -5 -14 -4 -15 5 -2 16 23 14
27 -21 28 -23 1 -28 -2 -18 -8z"/>
<path d="M570 242 c0 -5 15 -13 33 -19 26 -8 34 -7 34 2 0 7 -6 11 -13 8 -7
-2 -22 0 -33 7 -12 6 -21 7 -21 2z"/>
<path d="M740 193 c8 -3 19 -11 23 -17 6 -7 7 -6 4 4 -2 8 -12 16 -23 17 -13
2 -15 1 -4 -4z"/>
<path d="M871 122 c0 -7 -4 -11 -8 -9 -5 3 -15 -2 -22 -11 -13 -14 -12 -15 7
-10 12 4 20 2 16 -3 -3 -5 -12 -9 -19 -9 -9 0 -12 -6 -9 -15 4 -10 0 -15 -11
-15 -9 0 -29 -10 -43 -22 -18 -14 -21 -19 -8 -14 10 3 25 1 33 -5 20 -17 27
-4 8 15 -11 10 -12 16 -4 16 6 0 17 -7 24 -16 6 -10 25 -18 41 -20 21 -2 25
-1 14 6 -8 5 -23 10 -32 10 -10 0 -18 7 -18 15 0 8 5 15 11 15 5 0 7 6 3 13
-5 7 0 6 11 -3 17 -14 18 -13 12 3 -5 13 0 20 16 27 16 6 17 9 5 9 -9 1 -19 9
-21 19 -3 9 -5 11 -6 4z"/>
<path d="M995 100 c3 -5 8 -10 11 -10 2 0 4 5 4 10 0 6 -5 10 -11 10 -5 0 -7
-4 -4 -10z"/>
<path d="M920 85 c0 -9 6 -12 15 -9 8 4 15 7 15 9 0 2 -7 5 -15 9 -9 3 -15 0
-15 -9z"/>
<path d="M1012 84 c-7 -7 -12 -19 -12 -25 0 -7 -7 -4 -15 7 -8 10 -15 14 -15
9 0 -12 -39 -14 -57 -2 -6 4 -14 3 -17 -2 -4 -5 0 -12 6 -14 8 -4 4 -8 -10
-13 l-23 -7 27 -14 c15 -7 32 -12 38 -9 6 2 3 5 -6 5 -11 1 -15 6 -12 16 4 8
10 13 14 10 5 -3 10 0 12 7 3 7 10 8 17 4 10 -6 10 -10 2 -16 -26 -16 0 -35
52 -38 31 -1 47 1 39 6 -7 5 -10 15 -7 23 3 9 0 27 -7 41 -11 20 -16 23 -26
12z m28 -44 c0 -5 -2 -10 -4 -10 -3 0 -8 5 -11 10 -3 6 -1 10 4 10 6 0 11 -4
11 -10z m-20 -15 c14 -16 10 -18 -14 -9 -9 3 -16 10 -16 15 0 14 16 11 30 -6z"/>
<path d="M1040 90 c0 -4 13 -10 29 -12 17 -2 28 -1 26 3 -7 10 -55 18 -55 9z"/>
<path d="M1080 40 c0 -19 11 -34 28 -38 8 -1 12 4 10 13 -2 9 -7 15 -12 15 -5
-1 -13 4 -17 12 -7 10 -9 10 -9 -2z"/>
<path d="M1175 27 c-4 -10 -5 -21 -1 -24 10 -10 18 4 13 24 -4 17 -4 17 -12 0z"/>
<path d="M1201 14 c0 -11 3 -14 6 -6 3 7 2 16 -1 19 -3 4 -6 -2 -5 -13z"/>
<path d="M1220 10 c0 -5 5 -10 11 -10 5 0 7 5 4 10 -3 6 -8 10 -11 10 -2 0 -4
-4 -4 -10z"/>
<path d="M1250 10 c0 -5 5 -10 10 -10 6 0 10 5 10 10 0 6 -4 10 -10 10 -5 0
-10 -4 -10 -10z"/>
</g>
</svg>
